<svg width="3862" height="216" fill="none" xmlns="http://www.w3.org/2000/svg"><g clip-path="url(#a)"><path d="M-35 0c-7.732 0-14 6.268-14 14v44c0 7.732 6.268 14 14 14h72c-7.732 0-14-6.268-14-14V14C23 6.268 16.732 0 9 0h-44zM3897 0c7.73 0 14 6.268 14 14v44c0 7.732-6.27 14-14 14h-72c7.73 0 14-6.268 14-14V14c0-7.732 6.27-14 14-14h44z" fill="#FEC76F"/><path fill-rule="evenodd" clip-rule="evenodd" d="M671 14c0-7.732-6.268-14-14-14h28c-7.732 0-14 6.268-14 14zM3191 14c0-7.732 6.27-14 14-14h-28c7.73 0 14 6.268 14 14z" fill="#8BC9ED"/><path fill-rule="evenodd" clip-rule="evenodd" d="M253 144c-7.732 0-14-6.268-14-14v14h14zM3609 144c7.73 0 14-6.268 14-14v14h-14zM253 144c-7.732 0-14 6.268-14 14v-14h14zM3609 144c7.73 0 14 6.268 14 14v-14h-14zM37 144c-7.732 0-14 6.268-14 14v-14h14zM3825 144c7.73 0 14 6.268 14 14v-14h-14zM153 144c7.732 0 14 6.268 14 14v-14h-14zM3709 144c-7.73 0-14 6.268-14 14v-14h14z" fill="#8BB5FC"/><path d="M181 72c-7.732 0-14-6.268-14-14V14c0-7.732-6.268-14-14-14h-44c-7.732 0-14 6.268-14 14v44c0 7.732-6.268 14-14 14h100zM3681 72c7.73 0 14-6.268 14-14V14c0-7.732 6.27-14 14-14h44c7.73 0 14 6.268 14 14v44c0 7.732 6.27 14 14 14h-100z" fill="#8BB5FC"/><path fill-rule="evenodd" clip-rule="evenodd" d="M1679 14v44c0 7.727-6.26 13.992-13.99 14H1621c-7.73 0-14 6.268-14 14v44c0 7.732 6.27 14 14 14h44c7.73 0 14 6.268 14 14v44c0 7.732 6.27 14 14 14h44c7.73 0 14-6.268 14-14V86c0-7.732 6.27-14 14-14-7.73 0-14-6.268-14-14V14c0-7.732-6.27-14-14-14h-44c-7.73 0-14 6.268-14 14zm-158 130c7.73 0 14-6.268 14-14V86c0-7.732-6.27-14-14-14h-44c-7.73 0-14 6.268-14 14v44c0 7.732 6.27 14 14 14h44zm-360 72c7.73 0 14-6.268 14-14v-44.013c.01-7.726 6.27-13.987 14-13.987h-100c7.73 0 14 6.268 14 14v44c0 7.732 6.27 14 14 14h44zM2183 14v44c0 7.727 6.26 13.992 13.99 14H2241c7.73 0 14 6.268 14 14v44c0 7.732-6.27 14-14 14h-44c-7.73 0-14 6.268-14 14v44c0 7.732-6.27 14-14 14h-44c-7.73 0-14-6.268-14-14V86c0-7.732-6.27-14-14-14 7.73 0 14-6.268 14-14V14c0-7.732 6.27-14 14-14h44c7.73 0 14 6.268 14 14zm158 130c-7.73 0-14-6.268-14-14V86c0-7.732 6.27-14 14-14h44c7.73 0 14 6.268 14 14v44c0 7.732-6.27 14-14 14h-44zm360 72c-7.73 0-14-6.268-14-14v-44.013c-.01-7.726-6.27-13.987-14-13.987h100c-7.73 0-14 6.268-14 14v44c0 7.732-6.27 14-14 14h-44z" fill="#AC9BFE"/><path fill="#8BC9ED" d="M1003 0h426v72h-426zM1787 0h292v72h-292zM2859 0h-426v72h426z"/><path fill-rule="evenodd" clip-rule="evenodd" d="M945 72h-44c-7.732 0-14 6.268-14 14v44c0 7.732-6.268 14-14 14h-44c-7.732 0-14-6.268-14-14V14c0-7.732 6.268-14 14-14h188c7.73 0 14 6.268 14 14v44c0 7.732 6.27 14 14 14h44c7.73 0 14-6.268 14-14V14c0-7.732 6.27-14 14-14h44c7.73 0 14 6.268 14 14v44c0 7.732 6.27 14 14 14h44c7.73 0 14-6.268 14-14V14c0-7.732 6.27-14 14-14h44c7.73 0 14 6.268 14 14v44c0 7.732 6.27 14 14 14h44c7.73 0 14-6.268 14-14V14c0-7.732 6.27-14 14-14h288c-7.73 0-14 6.268-14 14v44c0 7.732-6.27 14-14 14h-44c-7.73 0-14 6.268-14 14 0-7.732-6.27-14-14-14h-44c-7.73 0-14 6.268-14 14 0-7.732-6.27-14-14-14h-44c-7.73 0-14 6.268-14 14 0-7.732-6.27-14-14-14h-44c-7.73 0-14 6.268-14 14v44c0 7.732-6.27 14-14 14h-44c-7.73 0-14-6.268-14-14V86c0-7.732-6.27-14-14-14h-44c-7.73 0-14 6.268-14 14v44c0 7.732-6.27 14-14 14H973c-7.732 0-14-6.268-14-14V86c0-7.732-6.268-14-14-14z" fill="url(#b)"/><path fill-rule="evenodd" clip-rule="evenodd" d="M2917 72h44c7.73 0 14 6.268 14 14v44c0 7.732 6.27 14 14 14h44c7.73 0 14-6.268 14-14V14c0-7.732-6.27-14-14-14h-188c-7.73 0-14 6.268-14 14v44c0 7.732-6.27 14-14 14h-44c-7.73 0-14-6.268-14-14V14c0-7.732-6.27-14-14-14h-44c-7.73 0-14 6.268-14 14v44c0 7.732-6.27 14-14 14h-44c-7.73 0-14-6.268-14-14V14c0-7.732-6.27-14-14-14h-44c-7.73 0-14 6.268-14 14v44c0 7.732-6.27 14-14 14h-44c-7.73 0-14-6.268-14-14V14c0-7.732-6.27-14-14-14h-288c7.73 0 14 6.268 14 14v44c0 7.732 6.27 14 14 14h44c7.73 0 14 6.268 14 14 0-7.732 6.27-14 14-14h44c7.73 0 14 6.268 14 14 0-7.732 6.27-14 14-14h44c7.73 0 14 6.268 14 14 0-7.732 6.27-14 14-14h44c7.73 0 14 6.268 14 14v44c0 7.732 6.27 14 14 14h44c7.73 0 14-6.268 14-14V86c0-7.732 6.27-14 14-14h44c7.73 0 14 6.268 14 14v44c0 7.732 6.27 14 14 14h260c7.73 0 14-6.268 14-14V86c0-7.732 6.27-14 14-14z" fill="url(#c)"/><path fill-rule="evenodd" clip-rule="evenodd" d="M743 14c0-7.732-6.268-14-14-14h100c-7.732 0-14 6.268-14 14v72c0-7.732-6.268-14-14-14h-44c-7.732 0-14-6.268-14-14V14zM3047 72v14c0-7.732 6.27-14 14-14h44c7.73 0 14-6.268 14-14V14c0-7.732 6.27-14 14-14h-100c7.73 0 13.99 6.26 14 13.987V72z" fill="#8BC9ED"/><path fill-rule="evenodd" clip-rule="evenodd" d="M657 72c7.732 0 14 6.268 14 14v44c0 7.732 6.268 14 14 14h44c7.732 0 14 6.268 14 14v44c0 7.732 6.268 14 14 14h44c7.732 0 14-6.268 14-14v-44c0-7.732 6.268-14 14-14-7.732 0-14-6.268-14-14V86c0-7.732-6.268-14-14-14h-44.013c-7.724-.007-13.983-6.268-13.987-13.993V14c0-7.732-6.268-14-14-14h-44c-7.732 0-14 6.268-14 14v44c0 7.732-6.268 14-14 14zM3205 72c-7.73 0-14 6.268-14 14v44c0 7.732-6.27 14-14 14h-44c-7.73 0-14 6.268-14 14v44c0 7.732-6.27 14-14 14h-44c-7.73 0-14-6.268-14-14v-44c0-7.732-6.27-14-14-14 7.73 0 14-6.268 14-14V86c0-7.732 6.27-14 14-14h44.01c7.73-.007 13.99-6.268 13.99-13.993V14c0-7.732 6.27-14 14-14h44c7.73 0 14 6.268 14 14v44c0 7.732 6.27 14 14 14z" fill="#9EA6FE"/><path fill-rule="evenodd" clip-rule="evenodd" d="M455 14c0-7.732-6.268-14-14-14h216c7.732 0 14 6.268 14 14v44c0 7.732-6.268 14-14 14h-44c-7.732 0-14 6.268-14 14v44c0 7.732-6.268 14-14 14h-44c-7.732 0-14-6.268-14-14V86c0-7.732-6.268-14-14-14h-44c-7.732 0-14 6.268-14 14V14zM3335 86c0-7.732 6.27-14 14-14h44c7.73 0 14 6.268 14 14V14c0-7.732 6.27-14 14-14h-216c-7.73 0-14 6.268-14 14v44c0 7.732 6.27 14 14 14h44c7.73 0 14 6.268 14 14v44c0 7.732 6.27 14 14 14h44c7.73 0 14-6.268 14-14V86z" fill="#84AEFA"/><path fill-rule="evenodd" clip-rule="evenodd" d="M325 72h44c7.732 0 14 6.268 14 14v44c0 7.732 6.268 14 14 14h44c7.732 0 14-6.268 14-14V14c0-7.732-6.268-14-14-14H325c-7.732 0-14 6.268-14 14v44c0 7.732 6.268 14 14 14zM3479 86c0-7.732 6.27-14 14-14h44c7.73 0 14-6.268 14-14V14c0-7.732-6.27-14-14-14h-116c-7.73 0-14 6.268-14 14v116c0 7.732 6.27 14 14 14h44c7.73 0 14-6.268 14-14V86z" fill="#FCC168"/><path d="M167 144h72v58c0 7.732-6.268 14-14 14h-44c-7.732 0-14-6.268-14-14v-58zM3695 144h-72v58c0 7.732 6.27 14 14 14h44c7.73 0 14-6.268 14-14v-58zM-49 144h72v58c0 7.732-6.268 14-14 14h-44c-7.732 0-14-6.268-14-14v-58zM3911 144h-72v58c0 7.732 6.27 14 14 14h44c7.73 0 14-6.268 14-14v-58zM0 72h225c7.732 0 14 6.268 14 14v58H0V72zM3862 72h-225c-7.73 0-14 6.268-14 14v58h239V72z" fill="#8BB5FC"/><path fill-rule="evenodd" clip-rule="evenodd" d="M9 0c7.732 0 14 6.268 14 14v44c0 7.732 6.268 14 14 14h44c7.732 0 14-6.268 14-14V14c0-7.732 6.268-14 14-14H9zM3853 0c-7.73 0-14 6.268-14 14v44c0 7.732-6.27 14-14 14h-44c-7.73 0-14-6.268-14-14V14c0-7.732-6.27-14-14-14h100zM167 14c0-7.732-6.268-14-14-14h172c-7.732 0-14 6.268-14 14v44c0 7.732 6.268 14 14 14-7.732 0-14 6.268-14 14v44c0 7.732-6.268 14-14 14h-44c-7.732 0-14-6.268-14-14V86c0-7.732-6.268-14-14-14h-44c-7.732 0-14-6.268-14-14V14zM3695 14c0-7.732 6.27-14 14-14h-172c7.73 0 14 6.268 14 14v44c0 7.732-6.27 14-14 14 7.73 0 14 6.268 14 14v44c0 7.732 6.27 14 14 14h44c7.73 0 14-6.268 14-14V86c0-7.732 6.27-14 14-14h44c7.73 0 14-6.268 14-14V14z" fill="#8BC9ED"/><path fill-rule="evenodd" clip-rule="evenodd" d="M1737 0c7.73 0 14 6.268 14 14v44c0 7.732 6.27 14 14 14h44c7.73 0 14 6.268 14 14v44c0 7.732 6.27 14 14 14h44c7.73 0 14-6.268 14-14V86c0-7.732 6.27-14 14-14h44c7.73 0 14 6.268 14 14v44c0 7.732 6.27 14 14 14h44c7.73 0 14-6.268 14-14V86c0-7.732 6.27-14 14-14h44c7.73 0 14-6.268 14-14V14c0-7.732 6.27-14 14-14h-72c-7.73 0-14 6.268-14 14v44c0 7.732-6.27 14-14 14h-44c-7.73 0-14-6.268-14-14V14c0-7.732-6.27-14-14-14h-44c-7.73 0-14 6.268-14 14v44c0 7.732-6.27 14-14 14h-44c-7.73 0-14-6.268-14-14V14c0-7.732-6.27-14-14-14h-72z" fill="url(#d)"/></g><defs><linearGradient id="b" x1="815" y1="72" x2="1693" y2="72" gradientUnits="userSpaceOnUse"><stop stop-color="#FEA877"/><stop offset="1" stop-color="#FF897E"/></linearGradient><linearGradient id="c" x1="3047" y1="72" x2="2169" y2="72" gradientUnits="userSpaceOnUse"><stop stop-color="#FEA877"/><stop offset="1" stop-color="#FF897E"/></linearGradient><linearGradient id="d" x1="1737" y1="72" x2="2125" y2="72" gradientUnits="userSpaceOnUse"><stop stop-color="#FF867F"/><stop offset=".505" stop-color="#FF8180"/><stop offset="1" stop-color="#FF867F"/></linearGradient><clipPath id="a"><path fill="#fff" d="M0 0h3862v216H0z"/></clipPath></defs></svg>