<svg  width="225" height="68" viewBox="0 0 225 68" fill="none" xmlns="http://www.w3.org/2000/svg" class="vip_mask_icon">
                        <mask  id="mask0_3973_16124" maskUnits="userSpaceOnUse" x="-100" y="0" width="1024" height="68" style="mask-type: alpha;">
                            <path  d="M-100 12C-100 5.37258 -94.6274 0 -88 0H912C918.627 0 924 5.37258 924 12V68H-100V12Z" fill="url(#paint0_linear_3973_16124)"></path>
                        </mask>
                        <g  mask="url(#mask0_3973_16124)">
                            <g  opacity="0.2" style="mix-blend-mode: hard-light;">
                                <mask  id="mask1_3973_16124" maskUnits="userSpaceOnUse" x="0" y="-60" width="110" height="154" style="mask-type: alpha;">
                                    <path  d="M40.6782 -60H9.08994C2.92653 -60 -1.05471 -53.3249 1.92838 -47.9926L78.7191 89.2704C81.7065 94.6104 89.4275 94.5844 92.5919 89.2238L108.712 61.9159C110.17 59.4465 110.222 56.4152 108.849 53.9536L47.5263 -56.0015C46.1464 -58.4758 43.536 -60 40.6782 -60Z" fill="url(#paint1_linear_3973_16124)"></path>
                                </mask>
                                <g  mask="url(#mask1_3973_16124)">
                                    <path  fill-rule="evenodd" clip-rule="evenodd" d="M-0.718681 -62.5501C-1.04437 -62.3911 -1.16651 -62.0104 -0.991492 -61.6999L119.328 151.798C119.503 152.109 119.909 152.232 120.235 152.073V152.073C120.56 151.914 120.682 151.533 120.507 151.223L0.187936 -62.2758C0.0129153 -62.5863 -0.392991 -62.7092 -0.718681 -62.5501V-62.5501ZM1.7657 -63.6751C1.44001 -63.5161 1.31787 -63.1354 1.49289 -62.8249L121.812 150.673C121.987 150.984 122.393 151.107 122.719 150.948V150.948C123.045 150.789 123.167 150.408 122.992 150.098L2.67232 -63.4007C2.4973 -63.7113 2.09139 -63.8342 1.7657 -63.6751V-63.6751ZM23.7423 -62.1986C23.4166 -62.0395 23.2944 -61.6589 23.4694 -61.3483L143.789 152.15C143.964 152.461 144.37 152.583 144.695 152.424V152.424C145.021 152.265 145.143 151.885 144.968 151.574L24.6489 -61.9242C24.4739 -62.2348 24.0679 -62.3576 23.7423 -62.1986V-62.1986ZM142.207 153.565C141.881 153.724 141.476 153.601 141.301 153.291L20.9812 -60.2077C20.8061 -60.5182 20.9283 -60.8989 21.254 -61.0579V-61.0579C21.5797 -61.217 21.9856 -61.0941 22.1606 -60.7836L142.48 152.715C142.655 153.025 142.533 153.406 142.207 153.565V153.565ZM147.031 151.268C146.706 151.427 146.3 151.304 146.125 150.994L25.8054 -62.5045C25.6304 -62.8151 25.7525 -63.1958 26.0782 -63.3548V-63.3548C26.4039 -63.5138 26.8098 -63.391 26.9848 -63.0804L147.304 150.418C147.479 150.728 147.357 151.109 147.031 151.268V151.268ZM4.11335 -64.8314C3.78766 -64.6724 3.66552 -64.2917 3.84054 -63.9811L124.16 149.517C124.335 149.828 124.741 149.951 125.067 149.792V149.792C125.392 149.633 125.514 149.252 125.339 148.941L5.01997 -64.557C4.84495 -64.8676 4.43904 -64.9904 4.11335 -64.8314V-64.8314ZM149.399 150.127C149.073 150.287 148.667 150.164 148.492 149.853L28.1726 -63.6452C27.9976 -63.9557 28.1197 -64.3364 28.4454 -64.4954V-64.4954C28.7711 -64.6545 29.177 -64.5316 29.352 -64.2211L149.671 149.277C149.846 149.588 149.724 149.968 149.399 150.127V150.127ZM6.46491 -65.972C6.13922 -65.813 6.01708 -65.4323 6.1921 -65.1217L126.512 148.377C126.687 148.687 127.092 148.81 127.418 148.651V148.651C127.744 148.492 127.866 148.111 127.691 147.801L7.37153 -65.6976C7.19651 -66.0082 6.7906 -66.131 6.46491 -65.972V-65.972ZM151.762 148.963C151.436 149.122 151.03 149 150.855 148.689L30.5359 -64.8092C30.3608 -65.1198 30.483 -65.5005 30.8087 -65.6595V-65.6595C31.1344 -65.8185 31.5403 -65.6957 31.7153 -65.3851L152.035 148.113C152.21 148.424 152.088 148.804 151.762 148.963V148.963ZM8.83211 -67.1439C8.50642 -66.9848 8.38428 -66.6042 8.5593 -66.2936L128.879 147.205C129.054 147.515 129.46 147.638 129.785 147.479V147.479C130.111 147.32 130.233 146.939 130.058 146.629L9.73873 -66.8695C9.5637 -67.1801 9.1578 -67.3029 8.83211 -67.1439V-67.1439ZM154.137 147.831C153.811 147.99 153.405 147.867 153.23 147.556L32.9109 -65.9421C32.7358 -66.2526 32.858 -66.6333 33.1837 -66.7923V-66.7923C33.5094 -66.9513 33.9153 -66.8285 34.0903 -66.5179L154.41 146.98C154.585 147.291 154.463 147.672 154.137 147.831V147.831ZM11.1993 -68.2845C10.8736 -68.1255 10.7515 -67.7448 10.9265 -67.4342L131.246 146.064C131.421 146.375 131.827 146.497 132.153 146.338V146.338C132.478 146.179 132.6 145.799 132.425 145.488L12.1059 -68.0101C11.9309 -68.3207 11.525 -68.4435 11.1993 -68.2845V-68.2845ZM156.488 146.682C156.163 146.841 155.757 146.718 155.582 146.408L35.2624 -67.0905C35.0874 -67.4011 35.2095 -67.7817 35.5352 -67.9408V-67.9408C35.8609 -68.0998 36.2668 -67.9769 36.4418 -67.6664L156.761 145.832C156.936 146.142 156.814 146.523 156.488 146.682V146.682ZM13.5548 -69.4173C13.2291 -69.2583 13.1069 -68.8776 13.2819 -68.5671L133.601 144.931C133.776 145.242 134.182 145.365 134.508 145.206V145.206C134.834 145.047 134.956 144.666 134.781 144.355L14.4614 -69.1429C14.2864 -69.4535 13.8804 -69.5763 13.5548 -69.4173V-69.4173Z" fill="url(#paint2_linear_3973_16124)"></path>
                                </g>
                                <mask  id="mask2_3973_16124" maskUnits="userSpaceOnUse" x="94" y="-60" width="131" height="158" style="mask-type: alpha;">
                                    <path  d="M216.574 -59.6094H183.143C180.233 -59.6094 177.522 -58.0303 176.062 -55.4856L95.3538 85.1824C92.2951 90.5134 96.0212 97.0554 102.116 97.0554H129.072C131.883 97.0554 134.517 95.5808 136.01 93.171L223.194 -47.497C226.498 -52.8282 222.792 -59.6094 216.574 -59.6094Z" fill="url(#paint3_linear_3973_16124)"></path>
                                </mask>
                                <g  mask="url(#mask2_3973_16124)">
                                    <path  fill-rule="evenodd" clip-rule="evenodd" d="M202.936 -92.9895C202.615 -93.1459 202.205 -93.0195 202.021 -92.7071L59.6493 148.139C59.4646 148.451 59.5751 148.832 59.896 148.988V148.988C60.2169 149.144 60.6268 149.018 60.8114 148.706L203.183 -92.1406C203.368 -92.453 203.257 -92.8331 202.936 -92.9895V-92.9895ZM205.319 -91.7673C204.998 -91.9238 204.588 -91.7973 204.404 -91.4849L62.7548 148.139C62.5701 148.451 62.6805 148.832 63.0015 148.988V148.988C63.3224 149.144 63.7322 149.018 63.9169 148.706L205.566 -90.9185C205.751 -91.2309 205.64 -91.6109 205.319 -91.7673V-91.7673ZM224.165 -87.7423C223.844 -87.8987 223.434 -87.7724 223.249 -87.4602L75.0756 162.881C74.8907 163.194 75.0011 163.574 75.3221 163.73V163.73C75.6429 163.887 76.0526 163.76 76.2374 163.448L224.411 -86.8932C224.596 -87.2056 224.486 -87.5859 224.165 -87.7423V-87.7423ZM72.9471 162.496C72.626 162.339 72.5157 161.959 72.7006 161.647L218.852 -85.2917C219.037 -85.6039 219.447 -85.7302 219.767 -85.5738V-85.5738C220.089 -85.4173 220.199 -85.0371 220.014 -84.7246L73.8623 162.214C73.6776 162.526 73.2679 162.652 72.9471 162.496V162.496ZM77.6499 164.84C77.329 164.683 77.2186 164.303 77.4033 163.991L225.51 -86.5107C225.695 -86.8231 226.105 -86.9495 226.426 -86.7931V-86.7931C226.747 -86.6367 226.857 -86.2566 226.672 -85.9442L78.5654 164.557C78.3807 164.87 77.9708 164.996 77.6499 164.84V164.84ZM207.643 -90.6551C207.322 -90.8116 206.912 -90.6851 206.727 -90.3727L67.329 145.444C67.1443 145.756 67.2548 146.136 67.5757 146.293V146.293C67.8966 146.449 68.3065 146.323 68.4911 146.01L207.889 -89.8063C208.074 -90.1187 207.964 -90.4987 207.643 -90.6551V-90.6551ZM79.9804 165.983C79.6595 165.826 79.549 165.446 79.7336 165.134L227.942 -85.6677C228.107 -85.9468 228.461 -86.0761 228.764 -85.9677V-85.9677C229.118 -85.8412 229.259 -85.4458 229.067 -85.1199L80.8958 165.7C80.7112 166.013 80.3013 166.139 79.9804 165.983V165.983ZM209.955 -89.4989C209.634 -89.6553 209.224 -89.5289 209.04 -89.2165L69.6415 146.6C69.4568 146.912 69.5673 147.292 69.8882 147.449V147.449C70.2091 147.605 70.619 147.479 70.8036 147.166L210.202 -88.65C210.387 -88.9624 210.276 -89.3425 209.955 -89.4989V-89.4989ZM82.3095 167.103C81.9887 166.947 81.8782 166.567 82.0626 166.254L230.156 -84.6103C230.341 -84.9229 230.751 -85.0495 231.072 -84.893V-84.893C231.393 -84.7367 231.503 -84.3569 231.319 -84.0445L83.2252 166.82C83.0406 167.133 82.6306 167.259 82.3095 167.103V167.103ZM212.279 -88.3817C211.959 -88.5381 211.549 -88.4117 211.364 -88.0993L71.9657 147.717C71.781 148.03 71.8915 148.41 72.2124 148.566V148.566C72.5333 148.723 72.9432 148.596 73.1278 148.284L212.526 -87.5328C212.711 -87.8452 212.6 -88.2253 212.279 -88.3817V-88.3817ZM84.6293 168.249C84.3086 168.092 84.198 167.713 84.3824 167.4L232.915 -84.2648C233.099 -84.5775 233.509 -84.7041 233.83 -84.5476V-84.5476C234.151 -84.3913 234.262 -84.0115 234.077 -83.6991L85.545 167.966C85.3605 168.279 84.9504 168.405 84.6293 168.249V168.249ZM214.615 -87.2255C214.294 -87.3819 213.885 -87.2554 213.7 -86.943L74.3016 148.873C74.117 149.186 74.2274 149.566 74.5483 149.722V149.722C74.8692 149.879 75.2791 149.752 75.4638 149.44L214.862 -86.3766C215.047 -86.689 214.936 -87.069 214.615 -87.2255V-87.2255ZM86.9443 169.385C86.6237 169.229 86.5131 168.85 86.6973 168.537L235.453 -83.7329C235.638 -84.0457 236.048 -84.1725 236.369 -84.0159V-84.0159C236.69 -83.8596 236.8 -83.48 236.616 -83.1677L87.8602 169.102C87.6757 169.415 87.2655 169.542 86.9443 169.385V169.385ZM216.924 -86.0848C216.603 -86.2412 216.193 -86.1148 216.009 -85.8024L76.6102 150.014C76.4256 150.326 76.536 150.707 76.8569 150.863V150.863C77.1778 151.019 77.5877 150.893 77.7724 150.581L217.171 -85.236C217.355 -85.5484 217.245 -85.9284 216.924 -86.0848V-86.0848Z" fill="url(#paint4_linear_3973_16124)"></path>
                                </g>
                            </g>
                        </g>
                        <defs >
                            <linearGradient  id="paint0_linear_3973_16124" x1="-100" y1="46.2188" x2="924" y2="46.2188" gradientUnits="userSpaceOnUse">
                                <stop  stop-color="#33375E"></stop>
                                <stop  offset="1" stop-color="#33375E"></stop>
                            </linearGradient>
                            <linearGradient  id="paint1_linear_3973_16124" x1="54.2904" y1="0.556386" x2="87.8821" y2="73.1426" gradientUnits="userSpaceOnUse">
                                <stop  stop-color="#CFDAFF" stop-opacity="0.68"></stop>
                                <stop  offset="1" stop-color="#E7DEFF" stop-opacity="0.7"></stop>
                            </linearGradient>
                            <linearGradient  id="paint2_linear_3973_16124" x1="141.082" y1="154.205" x2="28.321" y2="-76.7296" gradientUnits="userSpaceOnUse">
                                <stop  stop-color="#FDE8C3"></stop>
                                <stop  offset="1" stop-color="#EDD3A7"></stop>
                            </linearGradient>
                            <linearGradient  id="paint3_linear_3973_16124" x1="168.273" y1="-3.02952" x2="130.384" y2="82.077" gradientUnits="userSpaceOnUse">
                                <stop  stop-color="#CFDAFF" stop-opacity="0.83"></stop>
                                <stop  offset="1" stop-color="#F2DEFF" stop-opacity="0.8"></stop>
                            </linearGradient>
                            <linearGradient  id="paint4_linear_3973_16124" x1="220.379" y1="-90.7545" x2="156.987" y2="39.3038" gradientUnits="userSpaceOnUse">
                                <stop  stop-color="#DAC29A"></stop>
                                <stop  offset="1" stop-color="#E9D5B3"></stop>
                            </linearGradient>
                        </defs>
                    </svg>