<svg width="12" height="12" viewBox="0 0 12 12" fill="none" xmlns="http://www.w3.org/2000/svg" class="right-check-icon">
                                    <path d="M11.28 3.33417L11.2806 3.33354C11.5742 3.0204 11.5806 2.51791 11.2547 2.21242C10.9325 1.91037 10.4311 1.9363 10.1341 2.25266C10.134 2.2528 10.1339 2.25294 10.1337 2.25309L4.53434 8.16662L1.85394 5.48622C1.5442 5.17648 1.04203 5.17648 0.732299 5.48622C0.422567 5.79595 0.422567 6.29812 0.732299 6.60785L0.908258 6.43189L0.732299 6.60785L3.991 9.86656C4.14288 10.0184 4.34985 10.1022 4.56461 10.0988C4.77919 10.0953 4.9832 10.005 5.13007 9.84857C5.13019 9.84844 5.13031 9.84831 5.13043 9.84818L11.28 3.33417Z" fill="white" stroke="white" stroke-width="0.5" stroke-linecap="round" stroke-linejoin="round"></path>
                                </svg>