<?xml version="1.0" standalone="no"?><!DOCTYPE svg PUBLIC "-//W3C//DTD SVG 1.1//EN" "http://www.w3.org/Graphics/SVG/1.1/DTD/svg11.dtd"><svg t="1724037600769" class="icon" viewBox="0 0 1024 1024" version="1.1" xmlns="http://www.w3.org/2000/svg" p-id="9150" id="mx_n_1724037600771" width="48" height="48" xmlns:xlink="http://www.w3.org/1999/xlink"><path d="M645.34528 298.12736c0 22.18496 0.01024 44.36992-0.01024 66.55488 0 2.55488 0.69632 4.41856 3.12832 5.8624 1.55136 0.9216 2.75968 2.6624 4.02944 4.08576 2.08896 2.33984 4.5824 4.22912 6.6816 6.54848 1.44896 1.59744 3.21536 2.08384 5.50912 1.20832 5.02784-1.92 10.1376-3.56352 15.6416-3.71712 5.18144-0.14848 10.13248-1.69472 15.0016-3.33312 3.03616-1.024 6.2208-0.768 9.28256-1.16224 4.54656-0.58368 8.42752-2.95424 12.88192-3.57376 5.02272-0.70144 10.03008-0.38912 15.04256-0.1792 0.86528 0.03584 1.8176 0.72192 2.57536 1.50528 3.69664 3.81952 7.59808 7.4496 11.20256 11.35616 2.35008 2.54464 3.88096 5.79072 6.46144 8.192 0.1792 0.16384 0.22016 0.47104 0.384 0.66048 3.2512 3.77856 3.24608 3.75808-1.37728 6.02112-1.36192 0.6656-2.7392 1.32608-3.74272 2.54976-0.62976 0.768-1.4592 1.00352-2.46784 1.08544-1.94048 0.1536-3.79392 0.6144-5.30432 2.05312-0.65536 0.62464-1.536 1.28512-2.3808 1.38752-4.94592 0.60928-9.10848 3.28704-13.62432 5.01248-1.14688 0.44032-2.33984 0.49664-3.52768 0.45056-1.16736-0.04608-2.26304 0.17408-3.10272 0.91648-2.97472 2.6368-6.72768 2.97472-10.37312 3.63008-1.28512 0.2304-2.52928 0.7424-3.36896 1.60256-1.64864 1.68448-3.53792 2.37568-5.77024 2.03264-3.34848-0.51712-5.67296 1.792-8.4224 2.90304-2.0736 0.83968-4.22912 1.19808-6.41024 1.52064-2.80576 0.41472-5.6064 0.84992-7.53664 3.31264-0.47616 0.60928-1.26976 0.4352-1.92512 0.39424-2.91328-0.17408-5.53472 0.78848-8.064 2.04288-2.5856 1.28-5.25312 2.21184-8.15104 2.48832-2.97984 0.28672-6.10304 3.87072-6.9376 6.94784-1.20832 4.44928-0.72192 8.93952-0.91648 13.4144-0.14848 3.4048-0.2816 6.80448-0.69632 10.19904-0.28672 2.31936-1.91488 4.03456-2.24768 6.35904-0.45056 3.1488-1.43872 6.21056-1.44384 9.45152-0.03072 13.312 0.12288 26.62912-0.26624 39.93088-0.16896 5.632 0.14848 11.2128 0.19456 16.81408 0.03584 4.30592 2.71872 5.56544 5.44768 6.1696 0.65024 0.14336 1.35168-0.01024 1.8944 0.55808 3.74784 3.8912 9.31328 4.80768 13.37856 8.02816 3.67616 2.91328 8.54528 3.67616 11.8016 7.14752 0.37888 0.40448 0.88576 0.44032 1.36192 0.60416 2.13504 0.7424 4.37248 1.26464 5.87264 3.25632 0.65024 0.86528 1.78688 1.12128 2.87744 1.44896 3.93728 1.18272 6.95808 3.9936 10.35776 6.13376 1.76128 1.11104 3.33824 2.44224 5.59104 2.78528 2.3296 0.35328 4.16768 1.94048 6.17472 3.21536 3.79392 2.41664 8.02816 4.2752 11.78112 6.69696 3.60448 2.3296 8.46848 2.50368 11.04384 6.4768 0.43008 0.66048 1.1776 0.63488 1.8176 0.77312 3.19488 0.6912 6.23616 1.408 9.12384 3.34848 5.2736 3.54816 11.46368 5.4272 17.19808 8.16128 4.65408 2.21696 9.088 4.95104 14.14144 6.4512 3.30752 0.97792 6.07744 3.59936 9.79456 3.6608 0.22528 0.00512 0.54784 0.15872 0.66048 0.34304 1.4592 2.42176 3.92192 3.03104 6.41024 3.59936 0.4096 0.09216 0.93184 0.17408 1.16736 0.45568 3.27168 3.88096 9.04704 2.74944 12.51328 6.26688 0.49664 0.50688 1.33632 0.7168 2.05312 0.96256 2.63168 0.90112 5.32992 1.55648 7.66976 3.26656 1.01888 0.74752 2.3808 1.152 3.78368 1.33632 1.89952 0.25088 3.75808 0.75776 5.2224 2.29376 1.18272 1.23904 2.95424 1.9456 4.5568 2.04288 2.97984 0.18432 5.39648 1.46432 7.63904 3.13344 1.00352 0.74752 2.1248 0.7424 3.1232 0.8704 3.7888 0.49664 6.01088 4.18816 9.66656 4.65408 3.88096 0.49664 7.04 2.70336 10.60352 3.87584 2.54976 0.83968 5.74464-0.43008 7.87456 1.99168 1.14176 1.29536 2.55488 2.23744 4.0704 2.40128 5.37088 0.57856 9.43616 4.79744 14.98112 5.04832 1.62816 0.07168 2.7136 2.6112 4.82304 2.94912 2.1504 0.34816 4.18816 1.39776 6.40512 1.3056 1.7408-0.07168 3.22048 0.55296 4.49536 1.50016 2.23232 1.65376 4.66944 2.35008 7.37792 2.13504 2.0992-0.16896 3.80416 0.41472 5.2224 2.03776 1.92512 2.19136 4.80256 2.048 7.30112 2.39616 2.48832 0.34816 4.61824 1.0496 6.2208 2.89792 0.768 0.88576 1.62304 0.9216 2.5088 0.85504 2.432-0.1792 4.68992 0.92672 7.08096 0.88576 1.37216-0.02048 1.536 1.3824 2.50368 1.93536 2.88256 1.664 6.02112 2.14528 9.18528 2.4832 1.59744 0.16896 3.05152 0.5632 4.17792 1.57184 1.6896 1.51552 3.71712 1.97632 5.79072 2.06336 6.05184 0.256 11.02848 6.90176 9.4208 12.75904-0.14336 0.52224-0.67072 0.83968-0.31744 1.60256 1.28 2.77504 1.11616 3.77856-2.89792 4.24448-3.712 0.4352-7.49568 0.27136-11.25376 0.28672-4.51584 0.01536-8.80128 0.82944-12.65664 3.328-0.69632 0.45056-1.48992 0.3328-2.24256 0.3072-12.20608-0.40448-24.36608 1.05984-36.56704 0.88064-1.536-0.02048-2.92864 0.53248-4.07552 1.2544-3.79904 2.3808-7.53152 2.11968-11.2896 0.16384-1.30048-0.67584-2.8928-1.12128-4.0448-1.16224-3.72736-0.13312-7.26528-1.88928-11.06432-1.152-1.17248 0.22528-2.24768-0.00512-3.27168-0.93184-1.93024-1.74592-4.36224-2.51392-6.94272-2.74432-3.05664-0.27648-5.96992-0.7424-8.40704-2.98496-0.91136-0.83968-2.49344-1.32096-3.75808-1.31072-2.05312 0.01536-3.38944-0.90112-4.55168-2.33472-1.5616-1.92-3.97312-1.64864-6.00576-2.21184-1.41312-0.38912-2.7904-0.77824-3.93728-1.60256-1.46432-1.05472-2.94912-1.8432-4.7104-2.37056-4.26496-1.28-7.6288-4.41856-11.81696-5.98016-1.60768-0.59904-3.02592-1.82784-4.74624-2.35008-1.49504-0.45568-2.74944-1.1776-3.75808-2.44736-0.78336-0.99328-1.82272-1.65376-3.26656-1.70496-1.64864-0.06144-3.00544-1.05472-4.33664-1.9712-1.60256-1.11104-3.2-2.21696-5.21728-2.47808-0.39424-0.0512-0.8448-0.24064-1.12128-0.51712-3.8912-3.87584-9.4976-5.0176-13.59872-8.49408-2.99008-2.5344-6.784-3.79904-9.64096-6.48704-0.18432-0.17408-0.34816-0.44544-0.56832-0.50176-6.99392-1.80224-11.392-8.25344-18.304-10.1888-2.52416-3.47136-6.8352-4.39808-10.04032-7.05024-4.45952-3.69152-9.344-7.08096-14.83264-9.32352-0.384-0.15872-0.89088-0.36864-1.04448-0.69632-1.53088-3.21024-4.74112-4.41344-7.34208-6.3744-1.53088-1.152-3.40992-1.32608-4.96128-2.42688-3.82976-2.71872-7.54688-5.59104-11.60192-8.0128-2.92864-1.75104-5.5552-4.03456-8.23296-6.18496-0.86528-0.6912-1.75104-1.26976-2.70336-1.8176-3.6096-2.08384-7.18336-4.29056-10.22976-7.12704-4.65408-4.33664-9.97888-6.70208-16.26112-8.02304-6.144-1.29024-11.9552 0.36864-17.92 0.28672-2.80576-0.04096-4.63872 2.41664-4.6592 5.70368-0.07168 11.008-0.05632 22.01088-0.04608 33.01888 0.00512 4.69504 0.1792 9.38496 0.09216 14.08-0.04608 2.49856 0.81408 4.60288 2.048 6.64576 0.82944 1.36704 1.49504 2.8928 1.54112 4.41344 0.20992 6.7328 0.91648 13.4144 1.59232 20.10624 0.18944 1.86368-1.05472 3.34848-2.4576 4.20352-1.97632 1.20832-2.40128 3.11808-2.64704 4.94592-0.68096 5.02784 0.22016 10.14784 2.06336 14.62784 1.75104 4.2496 2.0736 8.40704 2.39104 12.75392 0.61952 8.43776 1.62304 16.84992 1.75104 25.3184 0.04096 2.80064 0.06144 5.60128 0.06144 8.40192 0.01024 18.176 0.6144 36.3776-0.25088 54.51264-0.40448 8.49408-0.13312 17.05472-1.26464 25.5744-0.90112 6.80448-0.3328 13.7984-0.52224 20.70528-0.07168 2.7136-0.4096 5.42208-0.65536 8.13056-0.1536 1.73568-1.76128 2.59584-2.5088 4.01408-0.74752 1.41824-1.21344 2.7392-1.16736 4.33152 0.11776 3.99872-0.74752 7.73632-3.16928 11.01824-0.1024 0.13824-0.24576 0.2816-0.26112 0.43008-0.4096 5.20704-5.10976 7.20896-7.97696 10.55744-1.19296 1.39264-2.6368 1.0496-4.22912-0.0512-3.67616-2.5344-3.18976-6.53312-3.8656-10.0864-0.26624-1.39776-0.54784-2.51392-1.62816-3.51744-1.75104-1.62816-1.67936-4.04992-2.00704-6.144-0.43008-2.75456-0.91136-5.31968-3.0976-7.25504-0.55296-0.49152-0.72192-1.14176-0.70144-1.84832 0.09216-3.6608-0.97792-6.94784-3.03104-9.96864-1.01376-1.4848-1.6128-3.1232-1.49504-4.99712 0.16896-2.7648-1.09056-5.0944-2.67776-7.17312-1.26464-1.65376-1.36704-3.34848-0.4608-4.94592 2.33472-4.11136 3.06176-8.57088 3.11808-13.16864 0.1024-8.192 0.11776-16.384 0.11776-24.576 0-5.7088 0.88064-11.264 2.95936-16.58368 1.00864-2.58048 0.56832-5.22752 0.62976-7.82848 0.22528-9.28768 1.09056-18.55488 0.9216-27.85792-0.0512-2.85696 1.28512-5.51936 1.93536-8.2688 1.32608-5.5808 1.78688-11.17696 1.7152-16.8448-0.11776-9.13408 1.09056-18.2272 0.78336-27.36128-0.0256-0.68096 0.13824-1.3056 0.42496-1.96096 0.91136-2.08384 1.45408-4.22912 1.40288-6.58432-0.14848-7.32672 0.71168-14.76096-0.5632-21.95456-1.43872-8.13056-1.27488-16.2304-1.26464-24.35584 0.00512-6.82496-1.21344-13.568-0.9472-20.39808 0.0768-2.00704-1.23392-3.62496-2.16576-5.2992-0.9216-1.65376-1.50528-3.29216-1.4592-5.25312 0.11776-4.68992 0.01024-9.37984 0.07168-14.07488 0.03072-2.20672 0.0256-4.34176-2.47296-5.30432-2.43712-0.94208-4.87424-0.4352-6.59456 1.24928-3.0208 2.95936-6.09792 5.92896-8.35072 9.58464-2.6112 4.23424-6.48704 7.38304-9.60512 11.17696-3.36384 4.09088-7.02464 7.93088-10.50112 11.90912-3.6608 4.19328-7.17312 8.55552-10.65984 12.86144-4.3776 5.40672-9.76896 9.728-14.35648 14.88896-3.64032 4.096-7.85408 7.84896-11.73504 11.73504-4.46464 4.46976-9.05728 8.9088-13.29664 13.6448-0.67584 0.75776-1.3824 1.4592-2.38592 1.86368-1.9712 0.78848-2.33984 2.78528-3.05664 4.45952-0.66048 1.536-0.896 3.37408-3.13344 3.43552-1.09056 3.4304-4.97152 2.4064-7.04512 4.4288-2.03264 1.98144-4.88448 3.2-6.66624 5.34528-3.77856 4.53632-9.0624 7.07072-13.51168 10.6752-3.072 2.4832-6.7584 4.8384-10.94656 5.6576-1.4592 0.28672-2.7904 0.93184-3.87584 1.79712-2.29376 1.83296-4.9152 2.1248-7.6544 2.22208-2.06848 0.07168-3.94752 0.31232-5.13024 2.50368-0.65536 1.21344-2.35008 1.3312-3.63008 1.49504-1.75616 0.22528-3.59936 0.18432-5.35552-0.06656-3.35872-0.48128-4.41344-2.78016-1.97632-5.10464 3.49184-3.33312 5.71904-7.77216 9.87648-10.5472 1.56672-1.04448 2.27328-3.30752 3.54816-4.86912 3.8912-4.77696 7.66464-9.67168 11.89376-14.13632 1.9456-2.05312 4.20352-3.90144 6.29248-5.88288 4.30592-4.08064 7.5776-9.01632 11.3152-13.55776 3.34848-4.0704 6.10304-8.576 9.84064-12.416 3.05152-3.13344 5.76-6.84032 7.99744-10.74176 0.29184-0.50688 0.51712-1.22368 0.96768-1.43872 3.85024-1.87392 5.72928-5.6832 8.41216-8.65792 2.48832-2.7648 4.22912-6.1696 5.91872-9.51808 0.26624-0.52736 0.4352-1.09568 0.86528-1.52576 4.95104-4.96128 8.73984-10.75712 12.52864-16.62464 2.38592-3.69664 5.2736-7.17312 7.41376-10.99776 3.57376-6.37952 8.22784-12.06784 11.26912-18.80576 1.73056-3.83488 5.28896-6.79424 6.65088-10.89536 1.3568-4.07552 3.11296-8.15616 5.21216-11.63264 2.688-4.46464 4.57216-9.33888 6.38464-13.94688 1.68448-4.29056 3.48672-8.64256 5.20704-12.96896 0.92672-2.33472-0.08192-4.98688 1.42848-7.14752 3.47136-4.96128 2.68288-10.66496 2.81088-16.19968 0.09216-3.9936 0.60416-7.97696 0.03072-11.99104-0.41984-2.93888-1.35168-3.79904-4.39296-4.096-5.42208-0.52736-10.33216 0.93696-15.21664 3.072-2.92352 1.27488-6.528 0.64512-9.2416 2.41664-3.93216 2.57024-8.31488 3.0464-12.73344 3.59424-0.55808 0.07168-0.93696 0.34304-1.3056 0.70656-2.59584 2.56512-6.1184 2.23232-9.27744 2.57536-1.4336 0.1536-2.77504 0.128-3.54816 1.24416-1.88928 2.72384-4.82304 2.94912-7.61344 3.39968-2.00192 0.32256-4.10112 0.3328-6.12864 0.16896-4.08576-0.3328-6.48192-5.60128-4.29056-9.48224 1.42336-2.51904 3.06176-4.96128 6.52288-4.85888 0.96768 0.0256 1.89952-0.60416 1.90976-1.3824 0.03072-1.74592 1.35168-2.2272 2.39616-2.9952 1.29536-0.95744 2.7648-1.69984 3.3792-3.35872 0.1024-0.2816 0.4608-0.60928 0.74752-0.66048 3.64032-0.6656 6.05696-3.51744 9.09824-5.22752 3.4048-1.91488 7.05024-3.456 10.1888-5.84192 1.78688-1.36192 3.94752-1.80736 5.97504-2.60608 3.91168-1.54112 6.94272-4.64896 10.81344-6.37952 1.92512-0.86016 4.13696-1.44896 5.72416-2.57024 3.84-2.70848 8.55552-3.51744 12.288-6.30784 1.07008-0.79872 2.31424-1.22368 3.67616-1.55136 2.34496-0.5632 4.49536-1.56672 6.53312-3.12832 2.49344-1.90976 5.74464-2.68288 8.43264-4.50048 1.99168-1.34656 3.23584-2.7136 3.23072-5.26848-0.00512-4.224 0.34304-8.3968 2.48832-12.25728 0.90112-1.6128 0.8704-3.57888 1.00352-5.46816 1.64352-23.39328 0.62464-46.82752 1.024-70.23616 0.07168-4.10112 0.39936-8.15104 0.8448-12.19584 0.21504-1.96608 1.03936-3.92704 1.88928-5.74464 0.65536-1.39776 0.79872-2.77504 0.70144-4.21376-0.41984-6.21568 1.85344-12.37504 0.78848-18.52928-1.00352-5.80096-0.55296-11.58144-0.50176-17.33632 0.06144-6.89664 0.0512-13.6192-3.4048-19.84-0.7424-1.33632-0.1792-2.88256-0.73216-4.24448-0.84992-2.08896-1.19808-4.40832-3.04128-6.03136-0.4608-0.40448-0.72704-1.17248-0.83968-1.81248-0.85504-5.00736-4.37248-8.83712-5.95456-13.568-0.92672-2.76992-3.11808-5.11488-4.71552-7.66976-0.58368-0.93184-1.19296-1.8688-1.6128-2.87744-0.82432-1.99168-1.71008-3.85536-3.84-4.83328-0.48128-0.22016-0.86528-0.84992-1.09056-1.37728-1.98656-4.56704-4.15232-8.96512-7.95136-12.416-2.14528-1.95072-1.91488-4.28544 0.36352-6.12864 1.46432-1.18784 2.95936-2.40128 3.95264-3.93728 1.6384-2.53952 3.87584-3.2 6.57408-2.73408 2.39616 0.41472 4.64384-1.26976 7.15264-0.1024 1.46944 0.68608 2.24768 2.12992 3.64544 2.67264 6.0416 2.34496 10.86464 6.63552 16.15872 10.15296 2.07872 1.3824 3.90144 3.3536 5.376 5.39136 2.76992 3.82976 6.54848 6.78912 8.84736 11.0592 1.41312 2.62144 3.63008 4.87936 5.76512 7.01952 2.14528 2.15552 2.94912 4.62848 2.94912 7.53152-0.00512 22.18496-0.00512 44.36992-0.00512 66.55488 0.04096-0.03584 0.04608-0.03584 0.05632-0.03584zM393.33888 665.18016v76.27776c0 4.67456-0.27648 9.23648-1.536 13.85984-0.7424 2.71872-1.08544 5.78048-1.2032 8.76032-0.5376 13.69088-1.1776 27.37664-1.84832 41.05728-0.14848 3.0976-2.41152 5.63712-2.7904 8.58112-0.64512 4.95104-3.75808 8.61696-5.7856 12.84608-0.1792 0.37376-0.41984 0.77824-0.7424 1.01888-1.34144 0.9984-8.2432 0.28672-9.44128-1.01888-1.11616-1.21856-2.44736-1.97632-3.90144-2.74432-3.18976-1.6896-6.51776-3.35872-9.216-5.69856-3.61984-3.14368-4.40832-10.38336-1.88416-14.73024 2.28352-3.93728 2.3552-8.2176 2.67264-12.49792 0.92672-12.59008 0.15872-25.22112 0.80384-37.8112 0.1536-2.95424 0.96256-5.94432 2.01216-8.87808 1.24416-3.47648 1.29536-7.35744 1.29536-11.08992 0.04608-45.47584-0.01536-90.9568 0.11776-136.43264 0.01536-4.8128-2.90304-7.66976-5.64224-10.67008-2.48832-2.72896-5.53472-4.94592-8.32-7.40352-1.82272-1.60768-3.67104-1.35168-4.25984 1.03936-1.54624 6.30784-5.20704 11.78624-6.54848 18.23744-0.768 3.712-2.6368 7.45472-5.50912 10.36288-0.29696 0.30208-0.68608 0.62464-0.77824 0.9984-1.40288 5.56544-5.98016 9.09824-8.7552 13.7728-3.25632 5.48864-7.66976 9.99424-12.0064 14.55616-8.704 9.1648-17.20832 18.55488-26.38848 27.21792-5.36064 5.05344-10.56256 10.3168-16.20992 15.09376-2.38592 2.01728-4.58752 4.42368-6.95808 6.43584-4.0448 3.42528-8.07424 6.99392-12.74368 9.61024-1.72544 0.96768-2.77504 2.4832-4.03456 3.82976-2.8672 3.05664-6.272 5.61152-9.56416 7.9872-3.82464 2.75968-7.4496 5.74464-11.20768 8.576-1.51552 1.14176-3.52768 0.14336-5.23776 0.52736-4.67456 1.05984-6.52288-2.64704-8.8576-5.27872-1.536-1.73056-0.6656-3.89632 0.73216-5.33504 5.9648-6.15936 12.16-12.09856 18.24768-18.12992 4.17792-4.13696 8.48896-8.20736 12.17536-12.92288 3.00032-3.83488 6.58432-7.31648 9.79968-11.04384 3.38944-3.92192 7.50592-7.12704 10.28096-11.7248 1.4848-2.46272 3.85536-4.74112 6.08768-6.76864 2.2016-2.00192 3.83488-4.41856 5.07904-6.85568 1.65888-3.26144 3.9424-6.00576 6.35392-8.47872 2.34496-2.40128 4.57728-4.97664 6.06208-7.7568 2.49344-4.67456 6.67648-8.02816 8.94464-12.8256 3.14368-6.65088 7.63392-12.48768 11.84768-18.4832 0.83456-1.18784 1.45408-2.49344 1.82272-3.90144 0.82944-3.16928 3.23584-5.53472 4.36736-8.5248 0.7424-1.96096 1.03424-4.06528 3.08224-5.26336 0.4608-0.27136 0.83968-0.9216 0.9728-1.46432 0.83456-3.32288 2.87744-6.09792 4.15744-9.11872 1.9456-4.57728 5.25312-8.5248 5.95968-13.78304 0.51712-3.82976 3.17952-7.21408 3.7376-11.2128 0.08192-0.57856 0.74752-1.11616 1.22368-1.59232 1.53088-1.53088 2.08384-3.42528 2.16576-5.51424 0.03584-0.93696-0.08704-1.89952 0.08192-2.80576 0.16896-0.90624 1.42336-1.6128 0.45568-2.73408-0.9472-1.09568-1.97632-2.02752-3.34848-2.64192-3.36384-1.50016-6.91712-1.024-10.3168-0.76288-4.736 0.36352-9.64608 0.57344-13.81376 3.4048-1.42848 0.96768-3.0208 1.69984-4.15744 3.10784-0.39424 0.4864-1.12128 0.9216-1.73568 0.97792-3.08224 0.28672-5.56032 1.93536-8.11008 3.4304-0.83968 0.49152-1.7408 0.73216-2.69312 0.65536-2.45248-0.20992-4.29568 0.88576-5.7344 2.72896-1.04448 1.34144-2.39104 1.90976-4.00896 1.81248-1.88928-0.11264-3.47648 0.53248-4.98176 1.60256-2.37568 1.6896-5.28384 2.34496-7.76704 3.75808-4.56704 2.59584-9.50784 4.34176-14.19264 6.66624-2.71872 1.34656-5.60128 2.30912-7.88992 4.40832-0.59392 0.54784-1.31584 0.72192-2.11968 0.73728-1.78688 0.03072-3.23072 0.81408-4.49536 2.05824-1.49504 1.46432-3.2256 2.4832-5.43232 2.3552-1.18272-0.07168-2.48832 0.39936-3.01056 1.16224-1.54112 2.22208-3.75808 2.64192-6.10816 3.06688a6.49216 6.49216 0 0 0-3.55328 1.8944c-0.17408 0.1792-0.384 0.384-0.6144 0.45568-4.94592 1.43872-9.14432 4.59264-14.04928 6.09792-0.73216 0.22528-1.48992 0.27648-2.0736 0.83456-2.58048 2.47296-5.67808 3.072-9.16992 2.944-5.4528-0.19968-10.92096-0.14336-16.37888-0.06144-1.96608 0.03072-3.6864-0.42496-5.2992-1.45408-2.2016-1.408-4.5568-2.24256-7.20384-2.20672-0.57344 0.01024-1.4336-0.02048-1.67424-0.37376-2.28864-3.30752-6.27712-4.82816-8.50944-8.20736-0.98816-1.50016-1.3312-3.072-0.59904-4.5568 0.67584-1.3824 2.2528-1.19808 3.65568-1.1776 4.76672 0.05632 9.44128-0.05632 13.84448-2.51392 3.42016-1.90976 7.50592-1.0496 11.24864-1.8176 3.10272-0.63488 6.20032-0.94208 8.59136-3.30752 0.68608-0.68096 1.5872-0.46592 2.42176-0.57856 3.6608-0.49664 7.45984-0.32256 10.56256-3.05152 1.13664-1.00352 2.816-1.408 4.51584-1.44384 2.89792-0.05632 5.36576-1.50016 7.7824-2.90816 0.7424-0.4352 1.50016-0.9728 2.2784-1.05984 2.95424-0.3328 5.5296-1.37216 7.63392-3.5072 0.11776-0.11776 0.27136-0.28672 0.4096-0.29184 5.76-0.0768 9.51296-4.992 14.73536-6.16448 3.2768-0.73728 5.26336-2.57536 7.15264-5.10464 1.18272-1.5872 3.00032-2.79552 5.26848-2.59584 1.28512 0.11264 2.54464-0.3072 3.29216-1.13664 1.65888-1.84832 3.93728-1.9456 6.01088-2.3552 1.72544-0.34304 3.0464-1.07008 4.1728-2.23744 3.1488-3.24608 7.22944-5.07904 10.9312-7.50592 5.31968-3.49184 10.78784-6.7584 15.73376-10.85952 2.59072-2.1504 4.94592-4.85888 8.4224-5.87264 2.05312-0.59904 3.28192-2.4064 4.75648-3.76832 3.03616-2.80576 6.5536-4.98176 9.6768-7.70048 2.23232-1.9456 5.27872-3.17952 7.6544-5.15584 4.45952-3.71712 8.56576-7.82336 12.74368-11.84768 2.39616-2.30912 4.91008-4.66432 7.81312-6.6048 4.20352-2.80576 7.808-6.55872 11.50464-10.07104 2.5856-2.4576 5.05856-4.99712 7.86432-7.23968 2.62656-2.0992 2.82624-5.44768 2.98496-8.61696 0.18944-3.80416-0.68608-7.7824 1.01888-11.35616 2.82624-5.9136 2.2784-12.26752 2.56512-18.44224 0.41472-8.93952 0.14336-17.91488 0.14848-26.86976 0-2.44224 0.67072-4.62848 1.84832-6.78912 1.48992-2.73408 1.47456-5.88288 1.7664-8.90368 1.15712-12.07296 0.88064-24.19712 1.03936-36.3008 0.0512-4.00896 2.01216-7.28576 3.08736-10.89536 0.37888-1.27488 0.45568-2.32448-0.34304-3.33824-1.64864-2.08896-2.12992-4.77184-3.5072-6.94784-1.94048-3.05664-3.7376-6.00576-4.9664-9.54368-0.90112-2.59072-2.70848-5.07904-3.7632-7.84384-0.55808-1.46944-2.6624-2.37568-3.16928-3.84512-1.41312-4.11136-3.92704-7.7056-5.21728-11.84256-1.06496-3.42016 0.08192-6.10304 4.2752-6.0416 6.05696 0.08704 12.11392-0.01536 18.17088-0.06144 2.69312-0.02048 4.77184 0.77312 6.61504 3.04128 2.22208 2.72384 5.26336 4.73088 7.63904 7.38816 1.42848 1.59744 2.68288 3.26144 3.56864 5.25312 0.63488 1.42848 1.39776 2.816 2.55488 4.0192 1.08032 1.12128 1.94048 2.55488 1.97632 4.32128 0.01536 0.81408 0.25088 1.85856 0.78848 2.38592 3.42016 3.34848 2.87744 7.82336 3.51232 11.93472 0.37376 2.42176 1.1008 4.6336 2.6112 6.52288 0.86016 1.07008 1.19808 2.18112 1.19296 3.52256-0.0256 19.11296-0.0256 38.22592-0.03584 57.33376 0 0.85504 0.03072 1.7152-0.47616 2.47296-2.92864 4.36736-3.08224 9.32864-3.35872 14.35648-0.50176 9.02656-0.76288 18.05312-0.68608 27.09504 0.04096 5.21728 1.96608 6.2976 6.58944 8.55552 4.46976 2.18112 9.6256 3.22048 13.40928 6.79424 0.54272 0.51712 1.08544 1.01376 1.90976 1.19808 3.76832 0.82432 5.97504 3.97824 8.73984 6.21568 4.76672 3.86048 3.968 9.46688 3.57888 14.67392-0.19968 2.69824-2.81088 4.80256-4.78208 5.57056-4.47488 1.74592-7.17824 5.3248-10.63936 8.13056-3.16928 2.57024-5.32992 6.1952-8.96512 8.25344-1.08032 0.60928-1.3824 1.88928-1.90464 2.96448-1.51552 3.13344-3.35872 5.96992-5.95456 8.4224-2.82112 2.66752-4.03456 6.528-5.3248 10.02496-1.03424 2.80064-1.66912 5.77024-2.944 8.56064-2.82624 6.1696-2.34496 12.4928-0.54272 18.87744 0.90112 3.2 0.93184 6.42048-0.19968 9.72288-1.44384 4.21888 0.03072 8.25344 6.08768 8.59136 4.33664 0.24064 8.70912 0.20992 13.05088 0.02048 10.42432-0.45056 20.76672 1.05984 31.16544 1.152 1.80736 0.01536 3.65056 0.34304 4.96128 2.10944 0.77824 1.04448 2.1248 1.97632 3.456 2.04288 4.1984 0.2048 6.23616 3.37408 8.83712 5.89312 2.24768 2.176 3.84512 4.8384 5.8368 7.18848 3.0464 3.58912 2.85184 11.91936-0.46592 15.36512-4.66944 4.85376-9.34912 9.69728-14.05952 14.51008-1.52576 1.55648-4.4288 1.38752-7.296-0.23552-3.20512-1.81248-6.59456-2.83136-10.33728-3.0464-4.10624-0.23552-8.22784-0.5632-11.93984-2.94912-1.9712-1.26976-4.55168-1.23392-6.94272-1.27488-3.21536-0.05632-6.40512 0.19456-9.10336-2.31936-1.16736-1.08544-2.95936-1.51552-4.75136-1.536-2.72896-0.03072-5.44768-0.3328-8.17664-0.4096-4.0704-0.11776-5.75488 1.50528-5.91872 5.58592-0.03584 0.84992-0.01024 1.70496-0.01024 2.56v80.62976c-0.02048-0.02048-0.01536-0.02048-0.01024-0.02048z" p-id="9151" fill="#0e932e"></path></svg>