<svg width="92" height="24" viewBox="0 0 92 24" fill="none" xmlns="http://www.w3.org/2000/svg">
<g filter="url(#filter0_di_13676_149081)">
<path fill-rule="evenodd" clip-rule="evenodd" d="M46.3272 5.13465V3.32695H48.2503V0H50.7696V3.25003H52.2119V5.05772H50.7696V9.61545C51.2504 9.50007 51.7696 9.34621 52.308 9.17314V10.9808C51.9261 11.1512 51.5343 11.2989 51.135 11.4232C51.0017 11.4525 50.8767 11.5117 50.7696 11.5962V18.1924C50.7696 19.8078 49.9234 20.6155 48.2503 20.6155H46.5388V18.8078H47.2503C47.9811 18.8078 48.308 18.5771 48.2503 17.904V12.5001C47.9719 12.5161 47.6984 12.5812 47.4426 12.6924C46.9301 12.6924 46.5377 12.7724 46.243 12.8325C46.1839 12.8446 46.1287 12.8558 46.0772 12.8655V10.6155C46.9234 10.5001 47.6542 10.3655 48.2503 10.2501V5.21157L46.3272 5.13465ZM56.2504 13.4616V8.32699H58.4235V11.5385H59.9427V6.92312H55.5004V11.077C55.6735 15.7117 54.3273 19.0001 51.4427 21.0001V18.9232C52.6056 16.9005 53.1411 14.5778 52.9811 12.2501V0.88462H66.4428V4.30772C66.5124 4.66621 66.493 5.03633 66.3863 5.38557C66.2795 5.73481 66.0886 6.05248 65.8304 6.31071C65.5721 6.56895 65.2544 6.75984 64.9052 6.86662C64.556 6.9734 64.1859 6.9928 63.8274 6.92312H62.385V11.5385H63.0197C63.7312 11.5385 64.0774 11.2116 64.0197 10.3655V8.21159H66.0774V10.7308C66.0774 12.5386 65.3274 13.4039 63.6543 13.3463H62.385V18.5771H63.385C64.0966 18.5771 64.4235 18.1732 64.3658 17.404V14.5193H66.6158V17.6732C66.6158 19.404 65.8081 20.2501 64.0197 20.1925H55.7119V14.4232H57.9619V18.4809H59.885V13.4616H56.2504ZM55.5004 2.78848V5.13465H62.9812C63.6927 5.13465 64.0389 4.82695 63.9812 4.03849V2.78848H55.5004ZM24.8848 1.61599V9.80836H32.0002V18.2892H26.8656V11.7122H24.0771V20.0969H39.6349C41.7887 20.0969 42.8657 19.0392 42.8657 17.1161V11.7122H40.1733V16.5776C40.231 17.77 39.6541 18.2892 38.4618 18.2892H35.0387V9.80836H38.8849C41.058 9.86605 42.0387 8.78912 42.0387 6.57757V1.61599H39.3849V6.11603C39.4618 7.32758 38.9233 7.82758 37.7695 7.82758H35.0772V0.135217H32.0002V7.82758H27.5771V1.61599H24.8848ZM0.461542 3.11375V5.03684L4.96157 5.05607C4.66054 6.43411 4.06 7.72904 3.20255 8.84905C2.3451 9.96905 1.25174 10.8867 0 11.5369V13.46C4.57696 11.8061 7.19236 9.01123 7.84621 5.0753H8.92314V13.7292H12.0001V5.0753H13.1924C13.795 9.02405 16.3591 11.8189 20.8848 13.46V11.5369C19.6521 10.862 18.5762 9.93393 17.7277 8.81366C16.8792 7.69338 16.2773 6.40626 15.9617 5.03684H20.4617V3.11375H12.0001V0.229118H8.92314V3.11375H0.461542ZM1.65386 14.7677C1.02459 16.5959 0.624108 18.495 0.461542 20.4216L3.05771 20.4408C3.25002 18.8254 3.57695 16.9408 4.05772 14.7677H1.65386ZM6.30774 14.7484C6.66043 16.621 6.87256 18.5174 6.94236 20.4216H9.55776C9.42937 18.507 9.12683 16.6081 8.65391 14.7484H6.30774ZM11.4424 14.7484C11.9294 16.6092 12.2638 18.5065 12.4424 20.4216L15.1155 20.4408C14.8261 18.5192 14.415 16.6179 13.8847 14.7484H11.4424ZM16.7694 14.7484C17.3091 16.6006 17.6697 18.5004 17.8463 20.4216H20.4617C20.2255 18.4863 19.774 16.5835 19.1155 14.7484H16.7694ZM69.5966 2.38373V4.30682H74.7313C74.2258 9.12306 72.3654 13.6973 69.3658 17.4992V19.7685C72.2697 17.3084 74.5332 14.1804 75.962 10.653C76.9209 12.7211 78.2212 14.6129 79.8082 16.2492C77.8453 17.467 75.7223 18.4055 73.5005 19.0377V20.8454C76.3333 20.158 79.0623 19.0975 81.6159 17.6915C84.1405 19.1375 86.8803 20.1698 89.7314 20.7493V19.0377C87.498 18.5071 85.3843 17.5611 83.5006 16.2492C85.6579 14.3578 87.2768 11.9296 88.1929 9.21071V7.28762H77.0774C77.0943 7.19957 77.1113 7.11078 77.1285 7.02123C77.2878 6.19158 77.4597 5.2962 77.6159 4.30682H89.9621V2.38373H77.8851C77.8984 2.31273 77.9148 2.23764 77.9322 2.15821C77.9899 1.89342 78.0582 1.58048 78.0582 1.21065C78.1176 0.822346 78.1498 0.430355 78.1544 0.0375604H75.1736L74.9043 2.38373H69.5966ZM76.2209 10.1337C76.3131 9.86969 76.4138 9.58126 76.539 9.2684H85.1929C84.3814 11.2585 83.2223 13.0883 81.7698 14.6723C80.6213 13.4511 79.6736 12.0555 78.9621 10.5376H76.0774C76.1244 10.41 76.1715 10.2754 76.2209 10.1337Z" fill="url(#paint0_linear_13676_149081)"/>
</g>
<defs>
<filter id="filter0_di_13676_149081" x="0" y="0" width="91.2622" height="22.2" filterUnits="userSpaceOnUse" color-interpolation-filters="sRGB">
<feFlood flood-opacity="0" result="BackgroundImageFix"/>
<feColorMatrix in="SourceAlpha" type="matrix" values="0 0 0 0 0 0 0 0 0 0 0 0 0 0 0 0 0 0 127 0" result="hardAlpha"/>
<feOffset dx="0.8" dy="0.7"/>
<feGaussianBlur stdDeviation="0.25"/>
<feComposite in2="hardAlpha" operator="out"/>
<feColorMatrix type="matrix" values="0 0 0 0 0.192157 0 0 0 0 0.14902 0 0 0 0 0 0 0 0 0.2 0"/>
<feBlend mode="normal" in2="BackgroundImageFix" result="effect1_dropShadow_13676_149081"/>
<feBlend mode="normal" in="SourceGraphic" in2="effect1_dropShadow_13676_149081" result="shape"/>
<feColorMatrix in="SourceAlpha" type="matrix" values="0 0 0 0 0 0 0 0 0 0 0 0 0 0 0 0 0 0 127 0" result="hardAlpha"/>
<feOffset dx="0.1" dy="0.1"/>
<feGaussianBlur stdDeviation="0.15"/>
<feComposite in2="hardAlpha" operator="arithmetic" k2="-1" k3="1"/>
<feColorMatrix type="matrix" values="0 0 0 0 1 0 0 0 0 0.78 0 0 0 0 0 0 0 0 0.25 0"/>
<feBlend mode="normal" in2="shape" result="effect2_innerShadow_13676_149081"/>
</filter>
<linearGradient id="paint0_linear_13676_149081" x1="0" y1="10.5317" x2="90.5005" y2="10.5317" gradientUnits="userSpaceOnUse">
<stop offset="0.166667" stop-color="#FFD4AC"/>
<stop offset="1" stop-color="#FFE8D2"/>
</linearGradient>
</defs>
</svg>
